<?xml version="1.0" encoding="utf-8"?>
<svg width="48px" height="48px" viewBox="0 0 48 48" version="1.1" xmlns:xlink="http://www.w3.org/1999/xlink" xmlns="http://www.w3.org/2000/svg">
  <defs>
    <path d="M0 0L48 0L48 48L0 48L0 0Z" id="path_1" />
    <clipPath id="mask_1">
      <use xlink:href="#path_1" />
    </clipPath>
  </defs>
  <g id="collections_bookmark_FILL1_wght400_GRAD0_opsz48">
    <path d="M0 0L48 0L48 48L0 48L0 0Z" id="Background" fill="#FFFFFF" fill-opacity="0" fill-rule="evenodd" stroke="none" />
    <path d="M7 44C6.2 44 5.5 43.7 4.9 43.1C4.3 42.5 4 41.8 4 41L4 10L7 10L7 41L38 41L38 44L7 44L7 44ZM13 38C12.2 38 11.5 37.7 10.9 37.1C10.3 36.5 10 35.8 10 35L10 7C10 6.2 10.3 5.5 10.9 4.9C11.5 4.3 12.2 4 13 4L41 4C41.8 4 42.5 4.3 43.1 4.9C43.7 5.5 44 6.2 44 7L44 35C44 35.8 43.7 36.5 43.1 37.1C42.5 37.7 41.8 38 41 38L13 38L13 38ZM22.3687 28.5L23.5875 22.9539L19.5 19.2237L24.9 18.7303L27 13.5L29.1 18.7303L34.5 19.2237L30.4125 22.9539L31.6313 28.5L27 25.5592L22.3687 28.5L22.3687 28.5Z" id="Shape" fill="#566061" fill-rule="evenodd" stroke="none" />
  </g>
</svg>