<svg width="538" height="496" viewBox="0 0 538 496" fill="none" xmlns="http://www.w3.org/2000/svg">
<path d="M368.456 167.946L415.425 190.787L419.41 158.906C419.645 155.914 418.365 153.08 415.849 151.022C405.377 142.315 392.167 135.893 377.312 132.285C374.791 131.729 372.747 133.256 372.372 136.094L368.456 167.946Z" fill="#1F2728"/>
<path opacity="0.3" d="M368.456 167.946L415.425 190.787L419.41 158.906C419.645 155.914 418.365 153.08 415.849 151.022C405.377 142.315 392.167 135.893 377.312 132.285C374.791 131.729 372.747 133.256 372.372 136.094L368.456 167.946Z" fill="#869496"/>
<path d="M236.708 104L189.865 81.3657L193.85 49.4847C194.156 46.676 196.269 45.1196 198.79 45.6751C213.656 49.2681 226.87 55.6928 237.328 64.4122C239.819 66.4898 241.073 69.3324 240.818 72.3264L236.708 104Z" fill="#1F2728"/>
<path opacity="0.3" d="M236.708 104L189.865 81.3657L193.85 49.4847C194.156 46.676 196.269 45.1196 198.79 45.6751C213.656 49.2681 226.87 55.6928 237.328 64.4122C239.819 66.4898 241.073 69.3324 240.818 72.3264L236.708 104Z" fill="#869496"/>
<path d="M78.5918 148.517C94.5416 117.205 107 90.6515 129.34 81.104C135.861 78.3169 163.334 66.5753 170.48 63.5213C176.243 61.2963 182.422 59.9913 188.628 59.6884C194.834 59.3854 200.933 60.091 206.541 61.7609C254.688 72.864 266.418 118.408 302.132 135.804C337.847 153.201 358.952 123.474 404.087 157.551C449.222 191.627 455.157 237.557 464.949 298.627C473.199 350.1 468.836 388.414 449.284 397.227C445.607 398.799 415.22 411.786 408.005 414.869C404.141 416.453 399.827 417.007 395.767 416.442C371.07 413.606 351.127 379.149 331.388 348.916C304.756 308.042 273.253 278.722 246.965 265.919C233.565 259.246 217.974 255.405 201.547 254.73C185.12 254.055 168.355 256.567 152.708 262.047C128.132 270.787 102.336 282.987 79.8311 262.885C52.8359 238.692 55.9265 193.672 78.5918 148.517Z" fill="#2B3637"/>
<path d="M78.5903 148.518C101.558 103.429 117.348 68.3973 165.602 79.3892C213.855 90.3811 225.478 136.037 261.192 153.433C296.907 170.829 318.012 141.103 363.077 175.209C408.143 209.315 414.218 255.186 424.009 316.255C433.801 377.325 425.795 420.004 395.829 416.547C371.132 413.711 351.189 379.254 331.449 349.021C304.818 308.147 273.314 278.827 247.026 266.024C233.626 259.351 218.035 255.51 201.608 254.835C185.182 254.16 168.416 256.672 152.77 262.152C128.194 270.891 102.397 283.092 79.8926 262.99C52.8345 238.693 55.925 193.674 78.5903 148.518Z" fill="#364244"/>
<path d="M169.923 227.06C200.507 206.477 221.323 205.941 253.257 221.426C285.191 236.911 303.472 256.532 325.667 302.764C349.132 351.523 351.077 372.443 374.445 405.633C359.246 392.533 345.602 369.754 332.094 349.072C305.462 308.198 273.959 278.878 247.671 266.076C234.271 259.403 218.68 255.562 202.253 254.887C185.826 254.212 169.061 256.723 153.415 262.203C136.545 268.237 119.125 275.813 102.654 273.577C130.955 265.792 137.541 248.999 169.923 227.06Z" fill="#2B3637"/>
<path d="M291.431 230.062C286.785 267.189 310.073 310.472 343.5 326.69C376.928 342.908 407.608 325.942 412.223 288.762C416.838 251.583 393.581 208.352 360.223 192.104C326.865 175.856 295.983 192.778 291.431 230.062Z" fill="#2B3637"/>
<path d="M400.415 226.529C392.125 211.688 378.908 199.122 362.022 190.029C346.553 182.531 330.667 181.547 317.347 187.24C301.46 194.03 290.891 209.586 288.342 230.01C283.626 267.887 307.543 312.207 341.632 328.795C357.101 336.293 372.987 337.277 386.307 331.584C402.194 324.794 412.801 309.157 415.35 288.733C417.349 266.839 412.209 245.429 400.415 226.529ZM308.757 289.871C297.488 271.68 292.579 251.102 294.489 230.062C296.815 211.431 306.09 197.342 319.896 191.442C331.135 186.638 344.688 187.378 358.456 194.231C390.919 210.012 413.672 252.413 409.165 288.763C406.839 307.394 397.564 321.482 383.758 327.383C372.519 332.186 359.035 331.417 345.267 324.563C329.205 315.928 316.635 303.983 308.757 289.871Z" fill="#263238"/>
<path d="M250.13 177.823L265.996 185.543C267.987 186.521 269.835 185.535 270.115 183.26C270.167 182.142 269.888 181.054 269.298 180.082C268.708 179.11 267.824 178.28 266.716 177.658L250.819 169.886C248.828 168.908 247.011 169.946 246.7 172.169C246.615 173.303 246.883 174.41 247.48 175.395C248.078 176.38 248.987 177.214 250.13 177.823Z" fill="#2B3637"/>
<path d="M265.265 216.164L281.131 223.884C283.122 224.862 284.97 223.876 285.25 221.601C285.303 220.483 285.023 219.395 284.433 218.423C283.843 217.45 282.96 216.621 281.851 215.999L265.954 208.227C263.963 207.249 262.146 208.286 261.835 210.51C261.75 211.643 262.018 212.751 262.616 213.736C263.213 214.721 264.123 215.554 265.265 216.164Z" fill="#2B3637"/>
<path d="M222.3 248.307C220.342 264.233 230.284 282.781 244.556 289.745C258.828 296.709 272.055 289.423 274.082 273.468C276.11 257.513 266.029 239.024 251.757 232.06C237.485 225.096 224.289 232.434 222.3 248.307Z" fill="#2B3637"/>
<path d="M270.613 246.146C266.937 239.565 261.063 233.999 253.558 229.985C250.713 228.307 247.268 227.31 243.587 227.101C239.906 226.891 236.128 227.476 232.654 228.795C228.544 231.003 225.144 233.966 222.792 237.389C220.44 240.812 219.217 244.576 219.244 248.308C217.147 265.012 227.687 284.545 242.79 291.873C245.638 293.545 249.084 294.538 252.763 294.748C256.442 294.957 260.218 294.375 263.694 293.063C267.816 290.854 271.229 287.888 273.593 284.46C275.958 281.032 277.191 277.261 277.173 273.52C278.046 263.887 275.789 254.467 270.613 246.146ZM231.354 273.31C226.617 265.733 224.564 257.141 225.391 248.359C225.297 245.475 226.149 242.551 227.866 239.863C229.583 237.174 232.108 234.811 235.203 232.996C237.709 232.158 240.39 231.827 242.983 232.036C245.575 232.244 247.991 232.986 249.992 234.187C263.47 240.707 272.876 258.373 271.027 273.469C271.103 276.357 270.232 279.281 268.497 281.966C266.763 284.65 264.221 287.006 261.113 288.81C258.633 289.685 255.959 290.038 253.374 289.832C250.789 289.627 248.388 288.869 246.426 287.641C239.803 284.065 234.616 279.133 231.354 273.31Z" fill="#263238"/>
<path d="M217.048 193.855C212.402 230.982 181.746 248.134 148.294 231.731C114.841 215.327 91.6099 172.282 96.256 135.154C100.902 98.0262 131.558 80.8746 165.048 97.1964C198.538 113.518 221.725 156.779 217.048 193.855Z" fill="#2B3637"/>
<path d="M205.302 131.727C197.012 116.885 183.795 104.319 166.909 95.2262C151.408 87.6765 135.523 86.6926 122.203 92.3855C106.315 99.1754 95.7778 114.783 93.2291 135.207C88.5129 173.084 112.43 217.404 146.519 233.992C161.988 241.49 177.874 242.474 191.194 236.781C207.081 229.991 217.618 214.383 220.167 193.959C222.173 172.063 217.058 150.646 205.302 131.727ZM113.644 195.068C102.375 176.877 97.4661 156.299 99.3755 135.259C101.702 116.628 110.977 102.539 124.783 96.6389C136.022 91.8355 149.575 92.5751 163.242 99.4061C195.806 115.209 218.559 157.61 214.021 193.908C211.726 212.591 202.451 226.679 188.645 232.58C177.406 237.383 163.853 236.644 150.154 229.761C134.092 221.125 121.522 209.18 113.644 195.068Z" fill="#263238"/>
<path d="M243.59 205.634L227.724 197.914C226.581 197.305 225.672 196.472 225.074 195.487C224.477 194.502 224.209 193.394 224.294 192.26C224.605 190.037 226.421 188.999 228.413 189.977L244.31 197.749C245.418 198.371 246.302 199.201 246.892 200.173C247.482 201.145 247.761 202.234 247.709 203.352C247.429 205.627 245.581 206.612 243.59 205.634Z" fill="#2B3637"/>
<path d="M231.519 252.99C231.014 258.177 232.047 263.273 234.537 267.877C237.026 272.48 240.904 276.465 245.866 279.518C255.059 284.016 263.644 279.301 264.921 269.023C265.476 263.778 264.459 258.619 261.952 253.962C259.445 249.304 255.518 245.277 250.487 242.205C241.224 237.738 232.74 242.474 231.519 252.99Z" fill="#1F2728"/>
<path opacity="0.6" d="M231.519 252.99C231.014 258.177 232.047 263.273 234.537 267.877C237.026 272.48 240.904 276.465 245.866 279.518C255.059 284.016 263.644 279.301 264.921 269.023C265.476 263.778 264.459 258.619 261.952 253.962C259.445 249.304 255.518 245.277 250.487 242.205C241.224 237.738 232.74 242.474 231.519 252.99Z" fill="#747E80"/>
<path opacity="0.3" d="M231.291 254.198C231.839 258.099 233.507 261.773 236.175 264.95C238.843 268.127 242.443 270.727 246.712 272.56C258.924 277.139 265.625 265.718 262.993 256.196C264.739 260.266 265.405 264.643 264.953 269.075C263.675 279.354 255.091 284.068 245.897 279.571C241.085 276.65 237.274 272.853 234.747 268.462C232.219 264.071 231.038 259.197 231.291 254.198Z" fill="#1F2728"/>
<path opacity="0.3" d="M236.841 252.544C237.916 256.331 241.467 254.552 246.454 253.988C251.441 253.424 255.5 254.499 254.501 250.549C253.89 248.536 252.496 246.774 250.502 245.492C248.509 244.211 246.009 243.471 243.331 243.369C238.407 244.037 235.591 248.898 236.841 252.544Z" fill="#747E80"/>
<path d="M339.631 214.754C339.076 219.998 340.093 225.157 342.6 229.814C345.107 234.472 349.034 238.499 354.065 241.571C363.328 246.039 371.843 241.354 373.19 231.046C373.695 225.858 372.662 220.762 370.173 216.159C367.683 211.556 363.805 207.57 358.844 204.517C349.461 199.709 340.877 204.423 339.631 214.754Z" fill="#1F2728"/>
<path opacity="0.5" d="M339.631 214.754C339.076 219.998 340.093 225.157 342.6 229.814C345.107 234.472 349.034 238.499 354.065 241.571C363.328 246.039 371.843 241.354 373.19 231.046C373.695 225.858 372.662 220.762 370.173 216.159C367.683 211.556 363.805 207.57 358.844 204.517C349.461 199.709 340.877 204.423 339.631 214.754Z" fill="#747E80"/>
<path opacity="0.3" d="M339.528 216.169C340.038 220.081 341.691 223.766 344.363 226.948C347.034 230.129 350.654 232.722 354.949 234.531C367.092 239.139 373.792 227.718 371.23 218.166C372.986 222.226 373.675 226.591 373.26 231.016C371.913 241.324 363.397 246.009 354.135 241.541C349.322 238.62 345.512 234.824 342.984 230.433C340.456 226.041 339.275 221.167 339.528 216.169Z" fill="#1F2728"/>
<path opacity="0.3" d="M345.008 214.545C346.082 218.332 349.633 216.553 354.62 215.989C359.607 215.425 363.666 216.499 362.668 212.55C362.086 210.531 360.71 208.758 358.726 207.47C356.742 206.181 354.244 205.438 351.567 205.34C346.643 206.008 343.965 210.81 345.008 214.545Z" fill="#747E80"/>
<path d="M367.845 267.167C367.327 272.355 368.346 277.454 370.824 282.063C373.301 286.671 377.169 290.663 382.122 293.725C391.416 298.244 399.553 293.656 401.247 283.2C401.784 277.958 400.758 272.804 398.253 268.149C395.747 263.493 391.83 259.464 386.813 256.382C377.43 252.293 369.123 256.888 367.845 267.167Z" fill="#1F2728"/>
<path opacity="0.5" d="M367.845 267.167C367.327 272.355 368.346 277.454 370.824 282.063C373.301 286.671 377.169 290.663 382.122 293.725C391.416 298.244 399.553 293.656 401.247 283.2C401.784 277.958 400.758 272.804 398.253 268.149C395.747 263.493 391.83 259.464 386.813 256.382C377.43 252.293 369.123 256.888 367.845 267.167Z" fill="#747E80"/>
<path opacity="0.3" d="M367.776 268.633C368.302 272.54 369.962 276.221 372.632 279.4C375.302 282.579 378.913 285.175 383.196 286.995C395.377 291.521 402.109 280.153 399.446 270.578C401.213 274.635 401.903 279.002 401.475 283.428C400.128 293.737 391.645 298.473 382.351 293.954C377.544 291.041 373.739 287.253 371.217 282.87C368.694 278.488 367.518 273.622 367.776 268.633Z" fill="#1F2728"/>
<path opacity="0.3" d="M373.254 267.01C374.366 270.716 377.848 268.966 382.835 268.403C387.822 267.839 391.881 268.913 390.882 264.963C390.301 262.934 388.923 261.152 386.934 259.854C384.945 258.557 382.438 257.806 379.75 257.702C374.858 258.421 372.18 263.224 373.254 267.01Z" fill="#747E80"/>
<path d="M330.536 287.749C330.018 292.937 331.037 298.036 333.515 302.645C335.992 307.253 339.86 311.246 344.813 314.307C354.107 318.827 362.591 314.09 363.938 303.782C364.48 298.538 363.449 293.382 360.93 288.73C358.411 284.077 354.473 280.058 349.434 276.994C340.398 272.756 331.606 277.56 330.536 287.749Z" fill="#1F2728"/>
<path opacity="0.5" d="M330.536 287.749C330.018 292.937 331.037 298.036 333.515 302.645C335.992 307.253 339.86 311.246 344.813 314.307C354.107 318.827 362.591 314.09 363.938 303.782C364.48 298.538 363.449 293.382 360.93 288.73C358.411 284.077 354.473 280.058 349.434 276.994C340.398 272.756 331.606 277.56 330.536 287.749Z" fill="#747E80"/>
<path opacity="0.3" d="M330.401 289.113C330.911 293.025 332.564 296.711 335.235 299.892C337.907 303.073 341.527 305.666 345.821 307.475C357.933 312.031 364.665 300.663 362.071 291.059C363.839 295.115 364.528 299.482 364.101 303.908C362.754 314.217 354.27 318.953 344.976 314.434C340.17 311.521 336.365 307.733 333.842 303.351C331.319 298.968 330.143 294.102 330.401 289.113Z" fill="#1F2728"/>
<path opacity="0.3" d="M335.945 287.593C336.988 291.328 340.539 289.549 345.526 288.985C350.513 288.421 354.572 289.495 353.574 285.545C352.992 283.517 351.615 281.734 349.625 280.437C347.636 279.139 345.13 278.388 342.442 278.284C337.479 279.033 334.871 283.806 335.945 287.593Z" fill="#747E80"/>
<path d="M302.32 235.337C301.802 240.525 302.822 245.624 305.299 250.232C307.777 254.841 311.644 258.833 316.598 261.895C325.86 266.362 334.376 261.678 335.622 251.347C336.17 246.155 335.165 241.048 332.685 236.435C330.206 231.823 326.322 227.834 321.345 224.789C312.151 220.292 303.567 225.006 302.32 235.337Z" fill="#1F2728"/>
<path opacity="0.5" d="M302.32 235.337C301.802 240.525 302.822 245.624 305.299 250.232C307.777 254.841 311.644 258.833 316.598 261.895C325.86 266.362 334.376 261.678 335.622 251.347C336.17 246.155 335.165 241.048 332.685 236.435C330.206 231.823 326.322 227.834 321.345 224.789C312.151 220.292 303.567 225.006 302.32 235.337Z" fill="#747E80"/>
<path opacity="0.3" d="M302.218 236.753C302.761 240.708 304.47 244.428 307.213 247.627C309.956 250.825 313.661 253.417 318.041 255.204C330.254 259.782 336.955 248.361 334.323 238.839C336.083 242.887 336.739 247.251 336.251 251.667C335.005 261.997 326.49 266.682 317.227 262.214C312.321 259.318 308.422 255.522 305.822 251.113C303.223 246.703 301.991 241.794 302.218 236.753Z" fill="#1F2728"/>
<path opacity="0.3" d="M307.698 235.128C308.772 238.915 312.323 237.136 317.31 236.572C322.297 236.009 326.356 237.083 325.358 233.133C324.786 231.102 323.405 229.321 321.404 228.035C319.403 226.749 316.881 226.021 314.188 225.953C309.402 226.562 306.624 231.342 307.698 235.128Z" fill="#747E80"/>
<path d="M144.518 119.95C143.982 125.14 144.993 130.244 147.472 134.855C149.951 139.466 153.828 143.456 158.796 146.508C168.058 150.975 176.574 146.291 177.82 135.96C178.393 130.713 177.384 125.55 174.876 120.89C172.368 116.23 168.43 112.205 163.385 109.143C154.349 104.905 145.764 109.619 144.518 119.95Z" fill="#1F2728"/>
<path opacity="0.5" d="M144.518 119.95C143.982 125.14 144.993 130.244 147.472 134.855C149.951 139.466 153.828 143.456 158.796 146.508C168.058 150.975 176.574 146.291 177.82 135.96C178.393 130.713 177.384 125.55 174.876 120.89C172.368 116.23 168.43 112.205 163.385 109.143C154.349 104.905 145.764 109.619 144.518 119.95Z" fill="#747E80"/>
<path opacity="0.3" d="M144.346 121.395C144.893 125.295 146.562 128.969 149.23 132.146C151.898 135.323 155.498 137.923 159.766 139.757C171.979 144.335 178.679 132.914 176.047 123.392C177.808 127.44 178.464 131.804 177.976 136.22C176.73 146.55 168.214 151.235 158.952 146.767C154.152 143.837 150.35 140.039 147.823 135.649C145.297 131.26 144.109 126.39 144.346 121.395Z" fill="#1F2728"/>
<path opacity="0.3" d="M149.895 119.742C150.969 123.529 154.521 121.75 159.508 121.186C164.495 120.622 168.554 121.697 167.555 117.747C166.963 115.725 165.575 113.954 163.578 112.67C161.581 111.386 159.071 110.652 156.385 110.567C151.461 111.235 148.821 115.956 149.895 119.742Z" fill="#747E80"/>
<path d="M172.731 172.361C172.177 177.605 173.194 182.764 175.701 187.422C178.208 192.079 182.135 196.106 187.166 199.178C196.429 203.646 204.597 199.11 206.222 188.683C206.795 183.435 205.786 178.272 203.278 173.612C200.769 168.952 196.832 164.927 191.787 161.865C182.562 157.316 174.148 162.023 172.731 172.361Z" fill="#1F2728"/>
<path opacity="0.5" d="M172.731 172.361C172.177 177.605 173.194 182.764 175.701 187.422C178.208 192.079 182.135 196.106 187.166 199.178C196.429 203.646 204.597 199.11 206.222 188.683C206.795 183.435 205.786 178.272 203.278 173.612C200.769 168.952 196.832 164.927 191.787 161.865C182.562 157.316 174.148 162.023 172.731 172.361Z" fill="#747E80"/>
<path opacity="0.3" d="M172.499 173.703C173.011 177.621 174.661 181.314 177.324 184.508C179.987 187.701 183.596 190.312 187.881 192.146C200.062 196.673 206.763 185.252 204.131 175.73C205.911 179.791 206.578 184.174 206.091 188.609C204.813 198.888 196.298 203.572 187.035 199.105C182.231 196.175 178.431 192.372 175.915 187.976C173.4 183.579 172.232 178.702 172.499 173.703Z" fill="#1F2728"/>
<path opacity="0.3" d="M178.109 172.154C179.183 175.941 182.734 174.162 187.721 173.598C192.709 173.034 196.767 174.108 195.769 170.158C195.187 168.14 193.812 166.367 191.828 165.078C189.844 163.79 187.346 163.047 184.669 162.949C179.675 163.646 177.066 168.419 178.109 172.154Z" fill="#747E80"/>
<path d="M135.423 192.945C134.886 198.136 135.897 203.239 138.376 207.85C140.855 212.461 144.732 216.451 149.7 219.503C158.962 223.971 167.478 219.286 168.755 209.008C169.328 203.76 168.32 198.597 165.811 193.937C163.303 189.277 159.366 185.252 154.321 182.19C145.253 177.9 136.606 182.511 135.423 192.945Z" fill="#1F2728"/>
<path opacity="0.5" d="M135.423 192.945C134.886 198.136 135.897 203.239 138.376 207.85C140.855 212.461 144.732 216.451 149.7 219.503C158.962 223.971 167.478 219.286 168.755 209.008C169.328 203.76 168.32 198.597 165.811 193.937C163.303 189.277 159.366 185.252 154.321 182.19C145.253 177.9 136.606 182.511 135.423 192.945Z" fill="#747E80"/>
<path opacity="0.3" d="M135.249 194.39C135.797 198.291 137.466 201.964 140.134 205.141C142.802 208.318 146.402 210.919 150.67 212.752C162.883 217.33 169.583 205.91 166.951 196.387C168.732 200.449 169.399 204.831 168.911 209.267C167.634 219.546 159.118 224.23 149.856 219.763C145.056 216.832 141.254 213.034 138.728 208.645C136.201 204.255 135.012 199.386 135.249 194.39Z" fill="#1F2728"/>
<path opacity="0.3" d="M140.8 192.738C141.874 196.525 145.425 194.746 150.412 194.182C155.399 193.618 159.458 194.692 158.46 190.743C157.848 188.73 156.454 186.968 154.46 185.686C152.467 184.405 149.967 183.665 147.29 183.563C142.366 184.231 139.757 189.003 140.8 192.738Z" fill="#747E80"/>
<path d="M107.208 140.533C106.659 145.725 107.665 150.833 110.144 155.445C112.624 160.057 116.508 164.046 121.485 167.091C130.71 171.64 139.294 166.926 140.54 156.595C141.077 151.405 140.066 146.301 137.587 141.69C135.108 137.079 131.231 133.089 126.263 130.037C117.07 125.54 108.454 130.202 107.208 140.533Z" fill="#1F2728"/>
<path opacity="0.5" d="M107.208 140.533C106.659 145.725 107.665 150.833 110.144 155.445C112.624 160.057 116.508 164.046 121.485 167.091C130.71 171.64 139.294 166.926 140.54 156.595C141.077 151.405 140.066 146.301 137.587 141.69C135.108 137.079 131.231 133.089 126.263 130.037C117.07 125.54 108.454 130.202 107.208 140.533Z" fill="#747E80"/>
<path opacity="0.3" d="M107.035 141.978C107.582 145.879 109.251 149.552 111.919 152.729C114.587 155.906 118.187 158.507 122.455 160.34C134.668 164.919 141.369 153.498 138.705 143.924C140.486 147.985 141.153 152.368 140.665 156.803C139.419 167.134 130.835 171.848 121.61 167.299C116.804 164.386 112.999 160.598 110.476 156.216C107.953 151.833 106.777 146.967 107.035 141.978Z" fill="#1F2728"/>
<path opacity="0.3" d="M112.679 140.481C113.754 144.268 117.273 142.437 122.292 141.925C127.31 141.413 131.338 142.435 130.339 138.485C129.728 136.463 128.332 134.691 126.333 133.4C124.334 132.11 121.826 131.362 119.138 131.254C114.119 131.766 111.511 136.539 112.679 140.481Z" fill="#747E80"/>
<path d="M152.752 356.122C152.124 356.122 151.517 355.989 150.925 355.722C150.334 355.454 149.818 355.073 149.376 354.577L132.437 335.069C131.882 334.43 131.55 333.684 131.441 332.831C131.329 331.978 131.477 331.178 131.882 330.432L136.034 322.491C136.441 321.78 136.986 321.212 137.668 320.785C138.352 320.359 139.116 320.146 139.963 320.146H165.538C166.386 320.146 167.152 320.359 167.836 320.785C168.519 321.212 169.064 321.78 169.467 322.491L173.619 330.432C174.026 331.178 174.173 331.978 174.062 332.831C173.951 333.684 173.619 334.43 173.066 335.069L156.127 354.577C155.683 355.074 155.167 355.457 154.577 355.724C153.986 355.991 153.377 356.124 152.751 356.122H152.752ZM147.493 330.805H158.012L154.69 324.41H150.814L147.493 330.805ZM150.539 349.3V335.069H138.249L150.539 349.3ZM154.966 349.3L167.255 335.069H154.966V349.3ZM162.937 330.805H168.806L165.485 324.41H159.616L162.937 330.805ZM136.698 330.805H142.567L145.889 324.41H140.02L136.698 330.805Z" fill="#2B3637"/>
<path d="M413.447 93.092C412.819 93.092 412.212 92.9583 411.62 92.6911C411.029 92.4239 410.513 92.0424 410.071 91.5463L393.132 72.0388C392.577 71.3992 392.245 70.6532 392.135 69.8003C392.024 68.9475 392.172 68.1481 392.577 67.4018L396.729 59.4604C397.136 58.7496 397.681 58.1812 398.363 57.7548C399.047 57.3283 399.811 57.1152 400.658 57.1152H426.233C427.081 57.1152 427.847 57.3283 428.531 57.7548C429.214 58.1812 429.758 58.7496 430.162 59.4604L434.314 67.4018C434.72 68.1481 434.868 68.9475 434.757 69.8003C434.646 70.6532 434.314 71.3992 433.761 72.0388L416.822 91.5463C416.378 92.0437 415.862 92.4262 415.272 92.6934C414.681 92.9605 414.071 93.0934 413.445 93.092H413.447ZM408.188 67.775H418.706L415.385 61.3791H411.509L408.188 67.775ZM411.233 86.2697V72.0388H398.944L411.233 86.2697ZM415.661 86.2697L427.95 72.0388H415.661V86.2697ZM423.632 67.775H429.501L426.18 61.3791H420.311L423.632 67.775ZM397.393 67.775H403.262L406.583 61.3791H400.715L397.393 67.775Z" fill="#2B3637"/>
</svg>
