<svg width="476" height="124" viewBox="0 0 476 124" fill="none" xmlns="http://www.w3.org/2000/svg">
<path d="M476 37.2L426.759 0H0V85.25L49.2414 124H476V37.2Z" fill="#1D2946"/>
<path d="M67.8934 38.2853V46.8693H76.5637V80.6H137.028V63.9769L123.702 59.4419L137.028 54.9084V38.2853H67.8934ZM142.284 38.2853V46.8693H150.955V80.6H211.419V57.6891H183.951V66.2731H196.231V72.016H166.145V46.8693H196.231V51.1L211.419 53.2767V38.2853H142.284ZM91.7535 46.8693H121.84V49.9512L110.375 55.1506H91.7535V46.8693ZM217.244 48.5616V56.4206H224.518V80.6H276.021V68.5103L261.472 70.0209V72.741H239.067V70.0209L276.021 64.5808V48.5616H217.244ZM281.235 48.5616V56.4206H288.509V80.6H340.011V68.5103L325.462 70.0209V72.741H303.058V70.0209L340.011 64.5808V48.5616H281.235ZM350.463 48.5616V80.6H365.012V56.4206H384.507L387.999 58.234V80.6H402.547V55.8151L388.29 48.5616H366.757L363.849 51.5844L360.881 48.5616H350.463ZM239.067 56.4206H261.472V59.1407L239.067 62.2225V56.4206ZM303.058 56.4206H325.462V59.1407L303.058 62.2225V56.4206ZM91.7535 63.7347H110.375L121.84 68.9326V72.016H91.7535V63.7347Z" fill="#F8FAFC"/>
</svg>
