<svg width="475" height="101" viewBox="0 0 475 101" fill="none" xmlns="http://www.w3.org/2000/svg">
<path d="M51.201 0.957275C46.4803 0.957275 42.0333 1.31987 37.8574 2.04604C33.6814 2.68157 29.1879 4.13567 24.3767 6.40525C19.5654 8.67482 15.4343 11.6254 11.9847 15.2566C8.53507 18.7971 5.67293 23.7881 3.40342 30.2334C1.13392 36.6787 0 44.1229 0 52.5655C0 67.9074 2.26785 79.3898 6.80685 87.0153C8.80402 90.3742 11.2109 93.0973 14.0251 95.1852C16.9301 97.1824 19.6996 98.5016 22.3321 99.1371C24.9647 99.7727 27.8226 100.089 30.9092 100.089C36.1746 100.089 40.0778 98.6809 42.6197 95.8667C45.2522 93.0524 46.8877 89.6972 47.5233 85.7935H48.612L49.5678 93.8263C49.7493 96.0959 50.5208 97.5037 51.8825 98.0484C53.2442 98.5022 56.4648 98.7257 61.5484 98.7257C66.7228 98.7257 71.6715 98.3631 76.3921 97.637C81.2034 96.9108 83.6104 95.9581 83.6104 94.7779V57.0577C83.6104 55.7868 82.9738 54.3367 81.703 52.7026C80.9768 51.7041 79.6152 50.9326 77.618 50.388C75.7116 49.8433 72.626 49.5693 68.3594 49.5693C64.0928 49.5693 59.6414 50.522 55.0116 52.4284C50.3819 54.3347 48.0677 56.4254 48.0677 58.695V70.9498C45.3442 70.5866 43.0763 68.8162 41.2608 65.639C39.4453 62.3709 38.5347 57.4222 38.5347 50.7952C38.5347 37.632 42.4382 31.052 50.2452 31.052C52.9686 31.052 57.0574 31.777 62.5042 33.2295C67.951 34.5912 71.0366 35.2741 71.7628 35.2741C74.7585 35.2741 77.0265 32.8671 78.5696 28.0558C80.1128 23.1537 80.8843 18.6139 80.8843 14.438C80.8843 9.17268 78.6629 5.63185 74.2146 3.81632C69.7663 1.90994 62.0946 0.957275 51.201 0.957275ZM206.499 2.32031C200.145 2.32031 194.155 2.95272 188.526 4.22357C182.989 5.40378 180.219 7.03929 180.219 9.12716V95.0522C180.219 96.4139 180.991 97.4128 182.534 98.0484C184.077 98.6839 186.982 99 191.248 99H201.188C212.536 98.7277 218.21 97.4124 218.21 95.0522C218.21 88.2437 217.392 75.4882 215.758 56.7876H216.984L224.339 92.3261C224.612 93.8693 225.155 94.9148 225.972 95.4594C226.879 96.0041 229.286 96.2781 233.191 96.2781C237.093 96.2781 239.999 95.9578 241.905 95.3223C243.901 94.6868 245.036 93.6878 245.308 92.3261L252.389 56.7876H253.615C252.071 75.1252 251.301 87.8805 251.301 95.0522C251.301 97.6847 255.022 99 262.467 99C269.909 99 276.221 98.6374 281.395 97.9112C286.57 97.1851 289.154 96.2324 289.154 95.0522V7.63115C289.154 6.08795 287.61 4.81483 284.525 3.81632C281.529 2.81781 276.853 2.32031 270.5 2.32031C264.144 2.32031 258.289 3.27297 252.934 5.17935C247.668 6.99488 244.716 9.12789 244.082 11.579L235.368 45.8916H234.142L224.884 9.94581C224.428 8.13028 222.841 6.40614 220.117 4.7721C217.394 3.13806 212.854 2.32031 206.499 2.32031ZM136.964 18.7972C129.792 18.7972 123.575 19.4296 118.31 20.7005C113.044 21.9713 108.277 24.1971 104.01 27.3743C95.3861 33.6382 91.0738 45.0321 91.0738 61.554C91.0738 65.8206 91.529 69.9517 92.4368 73.946C93.0724 76.6694 93.9323 79.1648 95.0216 81.4343C96.111 83.6131 97.7465 85.9273 99.9252 88.3783C102.195 90.8294 104.783 92.9159 107.688 94.6408C110.684 96.2748 114.494 97.6364 119.124 98.7257C123.845 99.8151 129.657 100.363 136.557 100.363C143.547 100.363 150.671 99.4525 157.933 97.637C165.195 95.8214 168.829 93.1446 168.829 89.6042C168.829 87.1532 167.421 83.3384 164.607 78.1639C161.793 72.9894 159.525 70.4054 157.8 70.4054C157.528 70.4054 154.758 71.5393 149.493 73.8088C144.228 75.9876 139.958 77.0751 136.69 77.0751C131.061 77.0751 128.25 74.1244 128.25 68.2237H132.742C158.523 68.2237 171.414 59.7384 171.414 42.7625C171.414 26.7852 159.931 18.7972 136.964 18.7972ZM132.742 38.4033C135.556 38.4033 136.964 41.1263 136.964 46.5731C136.964 49.5689 136.1 52.1108 134.375 54.1986C132.741 56.2865 130.608 57.3319 127.975 57.3319V48.3434C127.975 41.7164 129.565 38.4033 132.742 38.4033Z" fill="#E7C550"/>
<path d="M338.468 98.9999C361.97 98.9999 381.021 79.9482 381.021 56.4467C381.021 32.9453 361.97 13.8936 338.468 13.8936C314.967 13.8936 295.915 32.9453 295.915 56.4467C295.915 79.9482 314.967 98.9999 338.468 98.9999Z" fill="#746AEA"/>
<path d="M432.085 98.9999C455.587 98.9999 474.638 79.9482 474.638 56.4467C474.638 32.9453 455.587 13.8936 432.085 13.8936C408.584 13.8936 389.532 32.9453 389.532 56.4467C389.532 79.9482 408.584 98.9999 432.085 98.9999Z" fill="#40CE9B"/>
<path d="M414.021 77.7234C412.987 77.7251 411.955 77.5892 410.957 77.3192C407.96 76.4643 405.415 74.4681 403.872 71.7594C402.33 69.0507 401.908 65.8449 402.702 62.8298L407.66 44.0213C408.045 42.4992 408.732 41.0694 409.679 39.8162C410.625 38.563 411.813 37.5115 413.17 36.7234C414.494 35.9572 415.955 35.4613 417.47 35.2641C418.985 35.0668 420.525 35.1724 422 35.5745C423.568 36.0098 425.028 36.766 426.287 37.7951C427.547 38.8243 428.579 40.1041 429.319 41.5532H434.851C435.587 40.1017 436.619 38.8202 437.879 37.7907C439.14 36.7611 440.6 36.0062 442.17 35.5745C443.645 35.1724 445.185 35.0668 446.7 35.2641C448.215 35.4613 449.677 35.9572 451 36.7234C452.351 37.5094 453.534 38.5551 454.481 39.8004C455.425 41.0455 456.117 42.4655 456.511 43.9787L461.468 62.8298C462.272 65.8536 461.855 69.0728 460.308 71.7917C458.76 74.5109 456.202 76.5115 453.191 77.3617C451.717 77.7638 450.177 77.8694 448.662 77.6721C447.147 77.4749 445.685 76.9787 444.362 76.2128C443.008 75.4296 441.823 74.3847 440.877 73.1389C439.932 71.8934 439.242 70.4719 438.851 68.9575L438.468 67.0851H425.702L425.213 68.9149C424.821 70.4294 424.132 71.8509 423.187 73.0964C422.24 74.3421 421.055 75.387 419.702 76.1702C417.972 77.1673 416.017 77.7021 414.021 77.7234ZM418.957 39.4255C417.674 39.4298 416.413 39.767 415.298 40.4043C413.551 41.4294 412.281 43.1047 411.766 45.0638L406.808 63.8724C406.289 65.81 406.551 67.8741 407.538 69.6207C408.525 71.367 410.157 72.6568 412.085 73.2128C413.015 73.4666 413.987 73.5334 414.945 73.4094C415.902 73.2851 416.823 72.9726 417.66 72.4894C418.53 71.9873 419.289 71.3164 419.896 70.5162C420.502 69.7162 420.943 68.8028 421.191 67.8298L422.511 62.8298H441.66L442.957 67.8298C443.211 68.8009 443.653 69.7124 444.257 70.5119C444.864 71.3115 445.623 71.9836 446.489 72.4894C447.328 72.9719 448.255 73.2843 449.215 73.4085C450.174 73.5326 451.151 73.4662 452.085 73.2128C454.015 72.6621 455.649 71.3721 456.634 69.6232C457.617 67.8743 457.872 65.8077 457.34 63.8724L452.383 45.0638C452.136 44.0932 451.698 43.1813 451.096 42.3815C450.494 41.5815 449.736 40.9094 448.872 40.4043C448.034 39.9217 447.106 39.6094 446.147 39.4851C445.187 39.3611 444.211 39.4275 443.277 39.6809C442.121 40.0102 441.06 40.6107 440.183 41.4321C439.306 42.2536 438.638 43.2726 438.234 44.4043L437.723 45.8085H426.447L425.936 44.4043C425.528 43.2711 424.855 42.2515 423.977 41.43C423.096 40.6085 422.032 40.0089 420.872 39.6809C420.249 39.5126 419.604 39.4266 418.957 39.4255Z" fill="#1F2728"/>
<path d="M419.319 56.4466C418.477 56.4466 417.655 56.1971 416.955 55.7294C416.255 55.262 415.711 54.5973 415.387 53.8198C415.066 53.0422 414.981 52.1866 415.145 51.3611C415.311 50.5358 415.715 49.7775 416.311 49.1824C416.904 48.5873 417.664 48.182 418.489 48.0177C419.315 47.8537 420.17 47.9379 420.947 48.2598C421.726 48.582 422.389 49.1275 422.857 49.8273C423.326 50.5271 423.574 51.3496 423.574 52.1913C423.574 53.3198 423.126 54.4022 422.328 55.2003C421.53 55.9983 420.447 56.4466 419.319 56.4466Z" fill="#1F2728"/>
<path d="M444.851 50.0639C446.026 50.0639 446.979 49.1114 446.979 47.9363C446.979 46.7611 446.026 45.8086 444.851 45.8086C443.677 45.8086 442.724 46.7611 442.724 47.9363C442.724 49.1114 443.677 50.0639 444.851 50.0639Z" fill="#1F2728"/>
<path d="M444.851 58.5744C446.026 58.5744 446.979 57.6219 446.979 56.4468C446.979 55.2716 446.026 54.3191 444.851 54.3191C443.677 54.3191 442.724 55.2716 442.724 56.4468C442.724 57.6219 443.677 58.5744 444.851 58.5744Z" fill="#1F2728"/>
<path d="M440.596 54.3193C441.77 54.3193 442.723 53.3667 442.723 52.1916C442.723 51.0165 441.77 50.064 440.596 50.064C439.421 50.064 438.468 51.0165 438.468 52.1916C438.468 53.3667 439.421 54.3193 440.596 54.3193Z" fill="#1F2728"/>
<path d="M449.107 54.3193C450.281 54.3193 451.234 53.3667 451.234 52.1916C451.234 51.0165 450.281 50.064 449.107 50.064C447.932 50.064 446.979 51.0165 446.979 52.1916C446.979 53.3667 447.932 54.3193 449.107 54.3193Z" fill="#1F2728"/>
<path d="M338.468 83.0425C337.664 83.0425 336.885 82.8646 336.128 82.5091C335.371 82.1536 334.709 81.6459 334.143 80.9857L312.441 55.0283C311.73 54.1772 311.305 53.1844 311.164 52.0495C311.022 50.9148 311.211 49.851 311.73 48.858L317.049 38.2908C317.571 37.3451 318.268 36.5887 319.143 36.0212C320.02 35.4538 320.998 35.1702 322.083 35.1702H354.849C355.937 35.1702 356.917 35.4538 357.794 36.0212C358.668 36.5887 359.366 37.3451 359.883 38.2908L365.203 48.858C365.724 49.851 365.913 50.9148 365.771 52.0495C365.628 53.1844 365.202 54.1772 364.494 55.0283L342.792 80.9857C342.224 81.6476 341.562 82.1566 340.807 82.5121C340.049 82.8676 339.268 83.0444 338.466 83.0425H338.468ZM331.73 49.3546H345.207L340.951 40.844H335.985L331.73 49.3546ZM335.632 73.9644V55.0283H319.888L335.632 73.9644ZM341.305 73.9644L357.049 55.0283H341.305V73.9644ZM351.517 49.3546H359.037L354.781 40.844H347.262L351.517 49.3546ZM317.9 49.3546H325.42L329.675 40.844H322.156L317.9 49.3546Z" fill="#1F2728"/>
</svg>
