<svg width="246" height="52" viewBox="0 0 246 52" fill="none" xmlns="http://www.w3.org/2000/svg">
<path d="M26.7454 0.424988C24.3064 0.424988 22.0088 0.61254 19.8512 0.98764C17.6937 1.31624 15.372 2.06747 12.8862 3.23979C10.4004 4.41262 8.26602 5.93679 6.48372 7.81332C4.70138 9.64232 3.22262 12.221 2.05005 15.5509C0.877474 18.8814 0.291626 22.7274 0.291626 27.0891C0.291626 35.0158 1.46332 40.9487 3.80847 44.8883C4.84036 46.6238 6.08392 48.0307 7.53793 49.1095C9.03879 50.1412 10.4697 50.8232 11.8299 51.1513C13.19 51.4799 14.6666 51.6432 16.2614 51.6432C18.9818 51.6432 20.9984 50.9157 22.3118 49.4618C23.6719 48.0074 24.5169 46.274 24.8453 44.2574H25.4078L25.9017 48.4073C25.9954 49.5801 26.394 50.3076 27.0975 50.5887C27.8011 50.8232 29.4651 50.939 32.0916 50.939C34.7651 50.939 37.3219 50.7514 39.7609 50.3763C42.2467 50.0012 43.4903 49.5089 43.4903 48.8992V29.4105C43.4903 28.7538 43.1614 28.0047 42.5048 27.1604C42.1296 26.6443 41.4262 26.2459 40.3943 25.9643C39.4093 25.6828 37.815 25.5412 35.6106 25.5412C33.4062 25.5412 31.1064 26.0336 28.7143 27.0183C26.3222 28.0036 25.1266 29.0835 25.1266 30.2563V36.588C23.7195 36.4005 22.5477 35.4855 21.6097 33.844C20.6716 32.1556 20.2012 29.5986 20.2012 26.1746C20.2012 19.3737 22.218 15.9741 26.2516 15.9741C27.6587 15.9741 29.7712 16.3487 32.5854 17.0994C35.3996 17.8026 36.9939 18.1554 37.3691 18.1554C38.9169 18.1554 40.0886 16.9118 40.8859 14.4261C41.6832 11.8934 42.0819 9.54777 42.0819 7.39017C42.0819 4.66992 40.9341 2.8404 38.6358 1.90213C36.3376 0.917368 32.3738 0.424988 26.7454 0.424988ZM106.983 1.12921C103.7 1.12921 100.605 1.45625 97.6971 2.11294C94.8358 2.7226 93.4051 3.56735 93.4051 4.64615V49.0407C93.4051 49.7444 93.8035 50.2606 94.6007 50.5887C95.3985 50.9173 96.8988 51.0805 99.1035 51.0805H104.239C110.102 50.94 113.033 50.2601 113.033 49.0407C113.033 45.5233 112.611 38.9327 111.766 29.271H112.4L116.2 47.6323C116.341 48.4295 116.622 48.97 117.044 49.251C117.512 49.5326 118.756 49.6742 120.773 49.6742C122.79 49.6742 124.291 49.5088 125.276 49.1802C126.307 48.8522 126.893 48.336 127.034 47.6323L130.693 29.271H131.326C130.528 38.7451 130.13 45.3352 130.13 49.0407C130.13 50.4011 132.053 51.0805 135.899 51.0805C139.745 51.0805 143.006 50.893 145.679 50.5179C148.353 50.1428 149.688 49.6504 149.688 49.0407V3.87322C149.688 3.076 148.89 2.41828 147.296 1.90213C145.748 1.3865 143.332 1.12921 140.05 1.12921C136.766 1.12921 133.741 1.62159 130.974 2.60635C128.253 3.54462 126.729 4.64667 126.401 5.91302L121.898 23.6414H121.265L116.482 5.0693C116.246 4.13104 115.426 3.24031 114.019 2.39607C112.612 1.55184 110.266 1.12921 106.983 1.12921ZM71.0562 9.64232C67.3507 9.64232 64.1386 9.96937 61.4183 10.6255C58.6975 11.2822 56.2346 12.4323 54.03 14.0738C49.5742 17.3102 47.3464 23.1971 47.3464 31.7334C47.3464 33.938 47.5815 36.0724 48.0506 38.136C48.3792 39.5429 48.8235 40.8325 49.3862 42.0048C49.9488 43.1306 50.7941 44.3262 51.9194 45.5925C53.0922 46.8589 54.4294 47.9371 55.9303 48.8284C57.4782 49.6726 59.4467 50.3758 61.8389 50.939C64.2781 51.5016 67.2814 51.7848 70.8459 51.7848C74.4574 51.7848 78.1382 51.3141 81.8902 50.3763C85.6427 49.4381 87.5198 48.0555 87.5198 46.2259C87.5198 44.9596 86.7923 42.9885 85.3384 40.3153C83.8845 37.6415 82.7127 36.3065 81.8215 36.3065C81.6809 36.3065 80.2503 36.8924 77.5295 38.0652C74.8093 39.191 72.6031 39.7526 70.9146 39.7526C68.0068 39.7526 66.554 38.2279 66.554 35.1796H68.8748C82.1955 35.1796 88.8554 30.7952 88.8554 22.0242C88.8554 13.7695 82.923 9.64232 71.0562 9.64232ZM68.8748 19.7721C70.3287 19.7721 71.0562 21.179 71.0562 23.9933C71.0562 25.5412 70.6098 26.8546 69.7186 27.9334C68.8743 29.0122 67.7723 29.5521 66.4124 29.5521V24.9078C66.4124 21.4838 67.2334 19.7721 68.8748 19.7721Z" fill="#40CE9B"/>
<path d="M175.167 51.0805C187.309 51.0805 197.153 41.237 197.153 29.0948C197.153 16.9521 187.309 7.10907 175.167 7.10907C163.025 7.10907 153.181 16.9521 153.181 29.0948C153.181 41.237 163.025 51.0805 175.167 51.0805Z" fill="#40CE9B"/>
<path d="M223.536 51.0805C235.678 51.0805 245.522 41.237 245.522 29.0948C245.522 16.9521 235.678 7.10907 223.536 7.10907C211.393 7.10907 201.55 16.9521 201.55 29.0948C201.55 41.237 211.393 51.0805 223.536 51.0805Z" fill="#40CE9B"/>
<path d="M214.202 40.0875C213.668 40.0885 213.135 40.0182 212.62 39.8787C211.071 39.437 209.756 38.4057 208.959 37.0061C208.162 35.6069 207.944 33.9505 208.354 32.3927L210.916 22.6748C211.115 21.8884 211.47 21.1496 211.959 20.5022C212.448 19.8548 213.062 19.3118 213.763 18.9041C214.447 18.5084 215.202 18.2521 215.984 18.1503C216.767 18.0485 217.563 18.1028 218.325 18.3105C219.135 18.5358 219.889 18.9263 220.54 19.458C221.191 19.9896 221.724 20.651 222.106 21.3996H224.964C225.345 20.6499 225.878 19.9876 226.529 19.4559C227.181 18.9238 227.935 18.5337 228.746 18.3105C229.508 18.1028 230.304 18.0485 231.086 18.1503C231.869 18.2521 232.625 18.5084 233.308 18.9041C234.006 19.3102 234.617 19.8507 235.107 20.4939C235.595 21.1377 235.952 21.8714 236.155 22.6531L238.717 32.3927C239.133 33.9551 238.917 35.6183 238.118 37.0231C237.317 38.4279 235.996 39.4618 234.441 39.9009C233.679 40.1086 232.883 40.1629 232.1 40.0611C231.317 39.9593 230.562 39.7031 229.878 39.3073C229.179 38.9028 228.567 38.3628 228.078 37.7191C227.59 37.0753 227.234 36.3411 227.031 35.5584L226.833 34.5912H220.237L219.985 35.5367C219.782 36.3189 219.426 37.0536 218.938 37.6968C218.449 38.3406 217.837 38.8805 217.137 39.2851C216.244 39.8002 215.234 40.0766 214.202 40.0875ZM216.753 20.3007C216.09 20.3027 215.438 20.4769 214.862 20.806C213.959 21.3356 213.303 22.2015 213.037 23.2136L210.476 32.9311C210.208 33.9324 210.343 34.9988 210.853 35.9014C211.363 36.8035 212.206 37.47 213.202 37.7573C213.683 37.8885 214.185 37.9226 214.68 37.8586C215.174 37.7945 215.651 37.6333 216.082 37.3832C216.532 37.1239 216.925 36.7772 217.238 36.3638C217.551 35.9505 217.779 35.4788 217.907 34.9761L218.589 32.3927H228.482L229.153 34.9761C229.284 35.4778 229.512 35.9484 229.825 36.3618C230.138 36.7751 230.531 37.1223 230.978 37.3832C231.411 37.6328 231.89 37.794 232.386 37.8586C232.882 37.9226 233.386 37.888 233.869 37.7573C234.866 37.4726 235.71 36.8061 236.219 35.9025C236.727 34.9988 236.859 33.9314 236.584 32.9311L234.023 23.2136C233.895 22.712 233.669 22.2408 233.358 21.828C233.047 21.4146 232.655 21.0669 232.209 20.806C231.776 20.557 231.297 20.3952 230.801 20.3312C230.305 20.2671 229.8 20.3012 229.318 20.4324C228.721 20.6024 228.172 20.9129 227.719 21.3371C227.267 21.7618 226.922 22.2883 226.712 22.8727L226.449 23.5986H220.622L220.358 22.8727C220.148 22.2873 219.8 21.7608 219.346 21.3361C218.891 20.9119 218.341 20.6019 217.743 20.4324C217.42 20.3456 217.087 20.3012 216.753 20.3007Z" fill="#1F2728"/>
<path d="M216.94 29.0947C216.505 29.0947 216.081 28.9655 215.719 28.7242C215.357 28.4824 215.076 28.1394 214.908 27.7374C214.742 27.3354 214.698 26.8937 214.783 26.4669C214.869 26.0407 215.078 25.649 215.386 25.3416C215.693 25.0342 216.085 24.8244 216.511 24.7397C216.938 24.655 217.379 24.6984 217.781 24.8647C218.183 25.0311 218.526 25.3132 218.768 25.6749C219.01 26.036 219.139 26.4612 219.139 26.8963C219.139 27.4791 218.907 28.0381 218.494 28.4509C218.082 28.8632 217.523 29.0947 216.94 29.0947Z" fill="#1F2728"/>
<path d="M230.131 25.797C230.738 25.797 231.231 25.3046 231.231 24.6975C231.231 24.0904 230.738 23.5986 230.131 23.5986C229.525 23.5986 229.032 24.0904 229.032 24.6975C229.032 25.3046 229.525 25.797 230.131 25.797Z" fill="#1F2728"/>
<path d="M230.131 30.1938C230.738 30.1938 231.231 29.702 231.231 29.0949C231.231 28.4878 230.738 27.9954 230.131 27.9954C229.525 27.9954 229.032 28.4878 229.032 29.0949C229.032 29.702 229.525 30.1938 230.131 30.1938Z" fill="#1F2728"/>
<path d="M227.933 27.9953C228.54 27.9953 229.032 27.5029 229.032 26.8958C229.032 26.2887 228.54 25.7969 227.933 25.7969C227.326 25.7969 226.833 26.2887 226.833 26.8958C226.833 27.5029 227.326 27.9953 227.933 27.9953Z" fill="#1F2728"/>
<path d="M232.33 27.9953C232.937 27.9953 233.429 27.5029 233.429 26.8958C233.429 26.2887 232.937 25.7969 232.33 25.7969C231.723 25.7969 231.231 26.2887 231.231 26.8958C231.231 27.5029 231.723 27.9953 232.33 27.9953Z" fill="#1F2728"/>
<path d="M175.167 42.836C174.751 42.836 174.349 42.744 173.958 42.5601C173.567 42.3767 173.225 42.1142 172.932 41.7732L161.719 28.3616C161.352 27.9219 161.132 27.4088 161.06 26.8229C160.986 26.2365 161.084 25.6868 161.352 25.1737L164.101 19.7141C164.37 19.2253 164.731 18.8347 165.182 18.5413C165.635 18.2483 166.141 18.1016 166.702 18.1016H183.631C184.192 18.1016 184.699 18.2483 185.152 18.5413C185.604 18.8347 185.965 19.2253 186.232 19.7141L188.98 25.1737C189.249 25.6868 189.347 26.2365 189.273 26.8229C189.199 27.4088 188.98 27.9219 188.613 28.3616L177.401 41.7732C177.107 42.1152 176.765 42.3782 176.375 42.5616C175.984 42.7456 175.581 42.8365 175.166 42.836H175.167ZM171.685 25.4305H178.649L176.45 21.0332H173.884L171.685 25.4305ZM173.702 38.1452V28.3616H165.567L173.702 38.1452ZM176.632 38.1452L184.767 28.3616H176.632V38.1452ZM181.909 25.4305H185.794L183.596 21.0332H179.71L181.909 25.4305ZM164.54 25.4305H168.425L170.624 21.0332H166.739L164.54 25.4305Z" fill="#1F2728"/>
</svg>
