<svg width="45" height="45" viewBox="0 0 45 45" fill="none" xmlns="http://www.w3.org/2000/svg">
<g clip-path="url(#clip0_6_39)">
<path d="M44.3848 38.9092L35.6221 30.1465C35.2266 29.751 34.6904 29.5312 34.1279 29.5312H32.6953C35.1211 26.4287 36.5625 22.5264 36.5625 18.2812C36.5625 8.18262 28.3799 0 18.2812 0C8.18262 0 0 8.18262 0 18.2812C0 28.3799 8.18262 36.5625 18.2812 36.5625C22.5264 36.5625 26.4287 35.1211 29.5312 32.6953V34.1279C29.5312 34.6904 29.751 35.2266 30.1465 35.6221L38.9092 44.3848C39.7354 45.2109 41.0713 45.2109 41.8887 44.3848L44.376 41.8975C45.2021 41.0713 45.2021 39.7354 44.3848 38.9092ZM18.2812 29.5312C12.0674 29.5312 7.03125 24.5039 7.03125 18.2812C7.03125 12.0674 12.0586 7.03125 18.2812 7.03125C24.4951 7.03125 29.5312 12.0586 29.5312 18.2812C29.5312 24.4951 24.5039 29.5312 18.2812 29.5312Z" fill="#DDE9E4"/>
</g>
<defs>
<clipPath id="clip0_6_39">
<rect width="45" height="45" fill="white"/>
</clipPath>
</defs>
</svg>
