<svg width="45" height="45" viewBox="0 0 45 45" fill="none" xmlns="http://www.w3.org/2000/svg">
<g clip-path="url(#clip0_6_48)">
<path d="M45 21.25C45 19.4039 43.9883 17.8094 42.5 16.9438V5.00078C42.5 4.31719 41.9547 2.5 40 2.5C39.4437 2.5 38.8914 2.68594 38.4391 3.04844L31.7961 8.36328C28.4594 11.0305 24.2703 12.5 20 12.5H5C2.23828 12.5 0 14.7383 0 17.5V25C0 27.7617 2.23828 30 5 30H7.63281C7.52422 30.8188 7.4625 31.6516 7.4625 32.5C7.4625 35.607 8.18594 38.543 9.45938 41.1672C9.86484 42.0023 10.75 42.5 11.6781 42.5H17.4812C19.5164 42.5 20.7383 40.1688 19.5047 38.55C18.2234 36.8688 17.4617 34.7719 17.4617 32.5C17.4617 31.632 17.5883 30.7977 17.8062 30H20C24.2703 30 28.4594 31.4695 31.7953 34.1367L38.4383 39.4516C38.8813 39.8061 39.4318 39.9995 39.9992 40C41.9461 40 42.4992 38.2203 42.4992 37.5V25.557C43.9883 24.6906 45 23.0961 45 21.25ZM37.5 32.2984L34.918 30.2328C30.6992 26.8578 25.4 25 20 25V17.5C25.4 17.5 30.6992 15.6422 34.918 12.2672L37.5 10.2016V32.2984Z" fill="#DDE9E4"/>
</g>
<defs>
<clipPath id="clip0_6_48">
<rect width="45" height="45" fill="white"/>
</clipPath>
</defs>
</svg>
